<svg width="118" height="100" viewBox="0 0 118 100" fill="none" xmlns="http://www.w3.org/2000/svg">
<path d="M29.5 80.3H45.5V56.4H29.5V80.3ZM42.6 77.4H32.4V59.3H42.5V77.4H42.6Z" fill="#81B3D2"/>
<path d="M72.6 54.4L74.7 52.3L64.8 42.4V15.4H51V28.6L37.3 15L0 52.4L2.1 54.5L9.9 46.7V84.5H6V87.4H69.9V84.5H64.8V46.6L72.6 54.4ZM53.9 18.4H61.8V39.5L53.9 31.6V18.4ZM61.9 84.4H12.9V43.7L37.3 19.2L61.8 43.7V84.4H61.9Z" fill="#81B3D2"/>
<path d="M29.8 42.2C29.8 46.5 33.3 50 37.5 50C41.8 50 45.3 46.5 45.3 42.2C45.3 37.9 41.8 34.5 37.5 34.5C33.2 34.5 29.8 37.9 29.8 42.2ZM37.5 37.2C40.2 37.2 42.5 39.4 42.5 42.2C42.5 44.9 40.3 47.2 37.5 47.2C34.8 47.2 32.5 45 32.5 42.2C32.5 39.5 34.8 37.2 37.5 37.2Z" fill="#81B3D2"/>
<path d="M19.9 56.4H16.9V60.3H19.9V56.4Z" fill="#81B3D2"/>
<path d="M25.8 56.4H22.8V60.3H25.8V56.4Z" fill="#81B3D2"/>
<path d="M19.9 62.4H16.9V66.3H19.9V62.4Z" fill="#81B3D2"/>
<path d="M25.8 62.4H22.8V66.3H25.8V62.4Z" fill="#81B3D2"/>
<path d="M51.8 56.4H48.8V60.3H51.8V56.4Z" fill="#81B3D2"/>
<path d="M57.8 56.4H54.8V60.3H57.8V56.4Z" fill="#81B3D2"/>
<path d="M51.8 62.4H48.8V66.3H51.8V62.4Z" fill="#81B3D2"/>
<path d="M57.8 62.4H54.8V66.3H57.8V62.4Z" fill="#81B3D2"/>
</svg>
